<svg viewBox="0 0 480 270" xmlns="http://www.w3.org/2000/svg">
  <defs>
    <linearGradient id="brandGrad" x1="0%" y1="0%" x2="100%" y2="100%">
      <stop offset="0%" stop-color="#A78BFA"/>
      <stop offset="50%" stop-color="#F472B6"/>
      <stop offset="100%" stop-color="#FB923C"/>
    </linearGradient>
    <radialGradient id="glow" cx="50%" cy="40%" r="70%">
      <stop offset="0%" stop-color="#A78BFA" stop-opacity="0.35"/>
      <stop offset="100%" stop-color="#A78BFA" stop-opacity="0"/>
    </radialGradient>
    
  </defs>
  <rect width="480" height="270" fill="#15101f"/>
  <circle cx="360.0" cy="81.0" r="180" fill="url(#glow)"/>
<circle cx="10" cy="10" r="1" fill="#ffffff" opacity="0.14"/>
<circle cx="40" cy="10" r="1" fill="#ffffff" opacity="0.14"/>
<circle cx="70" cy="10" r="1" fill="#ffffff" opacity="0.14"/>
<circle cx="100" cy="10" r="1" fill="#ffffff" opacity="0.14"/>
<circle cx="130" cy="10" r="1" fill="#ffffff" opacity="0.14"/>
<circle cx="160" cy="10" r="1" fill="#ffffff" opacity="0.14"/>
<circle cx="190" cy="10" r="1" fill="#ffffff" opacity="0.14"/>
<circle cx="220" cy="10" r="1" fill="#ffffff" opacity="0.14"/>
<circle cx="250" cy="10" r="1" fill="#ffffff" opacity="0.14"/>
<circle cx="280" cy="10" r="1" fill="#ffffff" opacity="0.14"/>
<circle cx="310" cy="10" r="1" fill="#ffffff" opacity="0.14"/>
<circle cx="340" cy="10" r="1" fill="#ffffff" opacity="0.14"/>
<circle cx="370" cy="10" r="1" fill="#ffffff" opacity="0.14"/>
<circle cx="400" cy="10" r="1" fill="#ffffff" opacity="0.14"/>
<circle cx="430" cy="10" r="1" fill="#ffffff" opacity="0.14"/>
<circle cx="460" cy="10" r="1" fill="#ffffff" opacity="0.14"/>
<circle cx="10" cy="40" r="1" fill="#ffffff" opacity="0.14"/>
<circle cx="40" cy="40" r="1" fill="#ffffff" opacity="0.14"/>
<circle cx="70" cy="40" r="1" fill="#ffffff" opacity="0.14"/>
<circle cx="100" cy="40" r="1" fill="#ffffff" opacity="0.14"/>
<circle cx="130" cy="40" r="1" fill="#ffffff" opacity="0.14"/>
<circle cx="160" cy="40" r="1" fill="#ffffff" opacity="0.14"/>
<circle cx="190" cy="40" r="1" fill="#ffffff" opacity="0.14"/>
<circle cx="220" cy="40" r="1" fill="#ffffff" opacity="0.14"/>
<circle cx="250" cy="40" r="1" fill="#ffffff" opacity="0.14"/>
<circle cx="280" cy="40" r="1" fill="#ffffff" opacity="0.14"/>
<circle cx="310" cy="40" r="1" fill="#ffffff" opacity="0.14"/>
<circle cx="340" cy="40" r="1" fill="#ffffff" opacity="0.14"/>
<circle cx="370" cy="40" r="1" fill="#ffffff" opacity="0.14"/>
<circle cx="400" cy="40" r="1" fill="#ffffff" opacity="0.14"/>
<circle cx="430" cy="40" r="1" fill="#ffffff" opacity="0.14"/>
<circle cx="460" cy="40" r="1" fill="#ffffff" opacity="0.14"/>
<circle cx="10" cy="70" r="1" fill="#ffffff" opacity="0.14"/>
<circle cx="40" cy="70" r="1" fill="#ffffff" opacity="0.14"/>
<circle cx="70" cy="70" r="1" fill="#ffffff" opacity="0.14"/>
<circle cx="100" cy="70" r="1" fill="#ffffff" opacity="0.14"/>
<circle cx="130" cy="70" r="1" fill="#ffffff" opacity="0.14"/>
<circle cx="160" cy="70" r="1" fill="#ffffff" opacity="0.14"/>
<circle cx="190" cy="70" r="1" fill="#ffffff" opacity="0.14"/>
<circle cx="220" cy="70" r="1" fill="#ffffff" opacity="0.14"/>
<circle cx="250" cy="70" r="1" fill="#ffffff" opacity="0.14"/>
<circle cx="280" cy="70" r="1" fill="#ffffff" opacity="0.14"/>
<circle cx="310" cy="70" r="1" fill="#ffffff" opacity="0.14"/>
<circle cx="340" cy="70" r="1" fill="#ffffff" opacity="0.14"/>
<circle cx="370" cy="70" r="1" fill="#ffffff" opacity="0.14"/>
<circle cx="400" cy="70" r="1" fill="#ffffff" opacity="0.14"/>
<circle cx="430" cy="70" r="1" fill="#ffffff" opacity="0.14"/>
<circle cx="460" cy="70" r="1" fill="#ffffff" opacity="0.14"/>
<circle cx="10" cy="100" r="1" fill="#ffffff" opacity="0.14"/>
<circle cx="40" cy="100" r="1" fill="#ffffff" opacity="0.14"/>
<circle cx="70" cy="100" r="1" fill="#ffffff" opacity="0.14"/>
<circle cx="100" cy="100" r="1" fill="#ffffff" opacity="0.14"/>
<circle cx="130" cy="100" r="1" fill="#ffffff" opacity="0.14"/>
<circle cx="160" cy="100" r="1" fill="#ffffff" opacity="0.14"/>
<circle cx="190" cy="100" r="1" fill="#ffffff" opacity="0.14"/>
<circle cx="220" cy="100" r="1" fill="#ffffff" opacity="0.14"/>
<circle cx="250" cy="100" r="1" fill="#ffffff" opacity="0.14"/>
<circle cx="280" cy="100" r="1" fill="#ffffff" opacity="0.14"/>
<circle cx="310" cy="100" r="1" fill="#ffffff" opacity="0.14"/>
<circle cx="340" cy="100" r="1" fill="#ffffff" opacity="0.14"/>
<circle cx="370" cy="100" r="1" fill="#ffffff" opacity="0.14"/>
<circle cx="400" cy="100" r="1" fill="#ffffff" opacity="0.14"/>
<circle cx="430" cy="100" r="1" fill="#ffffff" opacity="0.14"/>
<circle cx="460" cy="100" r="1" fill="#ffffff" opacity="0.14"/>
<circle cx="10" cy="130" r="1" fill="#ffffff" opacity="0.14"/>
<circle cx="40" cy="130" r="1" fill="#ffffff" opacity="0.14"/>
<circle cx="70" cy="130" r="1" fill="#ffffff" opacity="0.14"/>
<circle cx="100" cy="130" r="1" fill="#ffffff" opacity="0.14"/>
<circle cx="130" cy="130" r="1" fill="#ffffff" opacity="0.14"/>
<circle cx="160" cy="130" r="1" fill="#ffffff" opacity="0.14"/>
<circle cx="190" cy="130" r="1" fill="#ffffff" opacity="0.14"/>
<circle cx="220" cy="130" r="1" fill="#ffffff" opacity="0.14"/>
<circle cx="250" cy="130" r="1" fill="#ffffff" opacity="0.14"/>
<circle cx="280" cy="130" r="1" fill="#ffffff" opacity="0.14"/>
<circle cx="310" cy="130" r="1" fill="#ffffff" opacity="0.14"/>
<circle cx="340" cy="130" r="1" fill="#ffffff" opacity="0.14"/>
<circle cx="370" cy="130" r="1" fill="#ffffff" opacity="0.14"/>
<circle cx="400" cy="130" r="1" fill="#ffffff" opacity="0.14"/>
<circle cx="430" cy="130" r="1" fill="#ffffff" opacity="0.14"/>
<circle cx="460" cy="130" r="1" fill="#ffffff" opacity="0.14"/>
<circle cx="10" cy="160" r="1" fill="#ffffff" opacity="0.14"/>
<circle cx="40" cy="160" r="1" fill="#ffffff" opacity="0.14"/>
<circle cx="70" cy="160" r="1" fill="#ffffff" opacity="0.14"/>
<circle cx="100" cy="160" r="1" fill="#ffffff" opacity="0.14"/>
<circle cx="130" cy="160" r="1" fill="#ffffff" opacity="0.14"/>
<circle cx="160" cy="160" r="1" fill="#ffffff" opacity="0.14"/>
<circle cx="190" cy="160" r="1" fill="#ffffff" opacity="0.14"/>
<circle cx="220" cy="160" r="1" fill="#ffffff" opacity="0.14"/>
<circle cx="250" cy="160" r="1" fill="#ffffff" opacity="0.14"/>
<circle cx="280" cy="160" r="1" fill="#ffffff" opacity="0.14"/>
<circle cx="310" cy="160" r="1" fill="#ffffff" opacity="0.14"/>
<circle cx="340" cy="160" r="1" fill="#ffffff" opacity="0.14"/>
<circle cx="370" cy="160" r="1" fill="#ffffff" opacity="0.14"/>
<circle cx="400" cy="160" r="1" fill="#ffffff" opacity="0.14"/>
<circle cx="430" cy="160" r="1" fill="#ffffff" opacity="0.14"/>
<circle cx="460" cy="160" r="1" fill="#ffffff" opacity="0.14"/>
<circle cx="10" cy="190" r="1" fill="#ffffff" opacity="0.14"/>
<circle cx="40" cy="190" r="1" fill="#ffffff" opacity="0.14"/>
<circle cx="70" cy="190" r="1" fill="#ffffff" opacity="0.14"/>
<circle cx="100" cy="190" r="1" fill="#ffffff" opacity="0.14"/>
<circle cx="130" cy="190" r="1" fill="#ffffff" opacity="0.14"/>
<circle cx="160" cy="190" r="1" fill="#ffffff" opacity="0.14"/>
<circle cx="190" cy="190" r="1" fill="#ffffff" opacity="0.14"/>
<circle cx="220" cy="190" r="1" fill="#ffffff" opacity="0.14"/>
<circle cx="250" cy="190" r="1" fill="#ffffff" opacity="0.14"/>
<circle cx="280" cy="190" r="1" fill="#ffffff" opacity="0.14"/>
<circle cx="310" cy="190" r="1" fill="#ffffff" opacity="0.14"/>
<circle cx="340" cy="190" r="1" fill="#ffffff" opacity="0.14"/>
<circle cx="370" cy="190" r="1" fill="#ffffff" opacity="0.14"/>
<circle cx="400" cy="190" r="1" fill="#ffffff" opacity="0.14"/>
<circle cx="430" cy="190" r="1" fill="#ffffff" opacity="0.14"/>
<circle cx="460" cy="190" r="1" fill="#ffffff" opacity="0.14"/>
<circle cx="10" cy="220" r="1" fill="#ffffff" opacity="0.14"/>
<circle cx="40" cy="220" r="1" fill="#ffffff" opacity="0.14"/>
<circle cx="70" cy="220" r="1" fill="#ffffff" opacity="0.14"/>
<circle cx="100" cy="220" r="1" fill="#ffffff" opacity="0.14"/>
<circle cx="130" cy="220" r="1" fill="#ffffff" opacity="0.14"/>
<circle cx="160" cy="220" r="1" fill="#ffffff" opacity="0.14"/>
<circle cx="190" cy="220" r="1" fill="#ffffff" opacity="0.14"/>
<circle cx="220" cy="220" r="1" fill="#ffffff" opacity="0.14"/>
<circle cx="250" cy="220" r="1" fill="#ffffff" opacity="0.14"/>
<circle cx="280" cy="220" r="1" fill="#ffffff" opacity="0.14"/>
<circle cx="310" cy="220" r="1" fill="#ffffff" opacity="0.14"/>
<circle cx="340" cy="220" r="1" fill="#ffffff" opacity="0.14"/>
<circle cx="370" cy="220" r="1" fill="#ffffff" opacity="0.14"/>
<circle cx="400" cy="220" r="1" fill="#ffffff" opacity="0.14"/>
<circle cx="430" cy="220" r="1" fill="#ffffff" opacity="0.14"/>
<circle cx="460" cy="220" r="1" fill="#ffffff" opacity="0.14"/>
<circle cx="10" cy="250" r="1" fill="#ffffff" opacity="0.14"/>
<circle cx="40" cy="250" r="1" fill="#ffffff" opacity="0.14"/>
<circle cx="70" cy="250" r="1" fill="#ffffff" opacity="0.14"/>
<circle cx="100" cy="250" r="1" fill="#ffffff" opacity="0.14"/>
<circle cx="130" cy="250" r="1" fill="#ffffff" opacity="0.14"/>
<circle cx="160" cy="250" r="1" fill="#ffffff" opacity="0.14"/>
<circle cx="190" cy="250" r="1" fill="#ffffff" opacity="0.14"/>
<circle cx="220" cy="250" r="1" fill="#ffffff" opacity="0.14"/>
<circle cx="250" cy="250" r="1" fill="#ffffff" opacity="0.14"/>
<circle cx="280" cy="250" r="1" fill="#ffffff" opacity="0.14"/>
<circle cx="310" cy="250" r="1" fill="#ffffff" opacity="0.14"/>
<circle cx="340" cy="250" r="1" fill="#ffffff" opacity="0.14"/>
<circle cx="370" cy="250" r="1" fill="#ffffff" opacity="0.14"/>
<circle cx="400" cy="250" r="1" fill="#ffffff" opacity="0.14"/>
<circle cx="430" cy="250" r="1" fill="#ffffff" opacity="0.14"/>
<circle cx="460" cy="250" r="1" fill="#ffffff" opacity="0.14"/><path d="M 100.0 129.0 L 123.0 97.66692361490067 L 146.0 90.0460947648722 L 169.0 111.9048047906468 L 192.0 146.7008177317941 L 215.0 168.10120470660388 L 238.0 159.9105795022395 L 261.0 128.32744398062601 L 284.0 97.25328544603387 L 307.0 90.20440756619655 L 330.0 112.51526059032973 L 353.0 147.30143575101286 L 376.0 168.23744920265966" fill="none" stroke="#ffffff" stroke-opacity="0.25" stroke-width="1.5"/><rect x="110.0" y="119.0" width="10" height="20.0" rx="5" fill="url(#brandGrad)" opacity="0.9"/><rect x="132.0" y="101.2840136009635" width="10" height="55.431972798073005" rx="5" fill="url(#brandGrad)" opacity="0.8571538966616306"/><rect x="154.0" y="91.90013242531734" width="10" height="74.19973514936531" rx="5" fill="url(#brandGrad)" opacity="0.739105807053849"/><rect x="176.0" y="95.26174241715597" width="10" height="67.47651516568806" rx="5" fill="url(#brandGrad)" opacity="0.5747580205836961"/><rect x="198.0" y="109.78782587071261" width="10" height="38.42434825857478" rx="5" fill="url(#brandGrad)" opacity="0.6956513927914999"/><rect x="220.0" y="109.35346123853546" width="10" height="39.293077522929096" rx="5" fill="url(#brandGrad)" opacity="0.8304002654414269"/><rect x="242.0" y="95.03166625862633" width="10" height="67.93666748274732" rx="5" fill="url(#brandGrad)" opacity="0.8964973738101559"/><rect x="264.0" y="91.98255315283086" width="10" height="74.0348936943383" rx="5" fill="url(#brandGrad)" opacity="0.8777598405517788"/><rect x="286.0" y="101.64016745851116" width="10" height="54.71966508297769" rx="5" fill="url(#brandGrad)" opacity="0.7787752673022642"/><rect x="308.0" y="118.53761773668039" width="10" height="20.924764526639233" rx="5" fill="url(#brandGrad)" opacity="0.623778529800773"/><rect x="330.0" y="100.9328685352333" width="10" height="56.1342629295334" rx="5" fill="url(#brandGrad)" opacity="0.6492817649121292"/><rect x="352.0" y="91.82537356838249" width="10" height="74.34925286323502" rx="5" fill="url(#brandGrad)" opacity="0.798034421001941"/><rect x="374.0" y="95.49853002757226" width="10" height="67.00293994485548" rx="5" fill="url(#brandGrad)" opacity="0.8860596003276281"/></svg>